# xmcd CD database file
#
# Track frame offsets:
#	150
#	15395
#	34325
#	51822
#	69862
#	85422
#	102755
#	122910
#	135177
#	150990
#	167950
#	186917
#	204645
#	220892
#	237780
#	255030
#	271555
#
# Disc length: 4070 seconds
#
# Revision: 0
# Processed by: cddbd v1.5.1PL2 Copyright (c) Steve Scherf et al.
# Submitted via: CDex 1.51
#
DISCID=d50fe411
DTITLE=Various Artist - promo radio Sony Music no.0037
DYEAR=1991
DGENRE=Pop Rock
TTITLE0=Michael Jackson  -  black or white
TTITLE1=Martika  -  MArtika's kitchen (single version)
TTITLE2=B.G. The Prince of Rap  -  take control of the party  (radio edit)
TTITLE3=C and C Music Factory  -  just a touch of love  (radio mix)
TTITLE4=The Shamen  -  move any mountain
TTITLE5=MAriah Carey  -  can't let go (edit)
TTITLE6=George Michael and Elton John  -  don't let the sun go down on me
TTITLE7=The Temptations  -  my girl
TTITLE8=Slick Rick  -  it's a boy (radio LP edit)
TTITLE9=Babyface  -  Mary Mack (7''mix)
TTITLE10=Luther Vandross  -  the rush (radio edit)
TTITLE11=Beverly Craven  -  holding on
TTITLE12=Deacon Blue  -  twist and shout
TTITLE13=Alison Moyet  -  it won't be long (edit)
TTITLE14=Neil Diamond  -  don't turn around
TTITLE15=Barbara Streisand  -  places that belong to you
TTITLE16=Bruce Cockburn  -  cry of a tiny babe
EXTD=YEAR: 1991
EXTT0=
EXTT1=
EXTT2=
EXTT3=
EXTT4=
EXTT5=
EXTT6=
EXTT7=
EXTT8=
EXTT9=
EXTT10=
EXTT11=
EXTT12=
EXTT13=
EXTT14=
EXTT15=
EXTT16=
PLAYORDER=
